<?xml version="1.0" encoding="utf-8"?>
<!-- Generator: Adobe Illustrator 16.0.0, SVG Export Plug-In . SVG Version: 6.00 Build 0)  -->
<!DOCTYPE svg PUBLIC "-//W3C//DTD SVG 1.1//EN" "http://www.w3.org/Graphics/SVG/1.1/DTD/svg11.dtd">
<svg version="1.1" xmlns="http://www.w3.org/2000/svg" xmlns:xlink="http://www.w3.org/1999/xlink" x="0px" y="0px" width="1122px"
	 height="1122px" viewBox="0 0 1122 1122" enable-background="new 0 0 1122 1122" xml:space="preserve">
<g id="BG">
	<rect x="-0.921" y="-0.232" fill="#71858B" width="1122" height="1122"/>
	<path fill="#FFFFFF" stroke="#272525" stroke-miterlimit="10" d="M536,380c0,6.627-5.372,12-12,12H272c-6.627,0-12-5.373-12-12
		v-15.333c0-6.627,5.373-12,12-12h252c6.628,0,12,5.373,12,12V380z"/>
</g>
<g id="Shadow">
	<g id="XMLID_3651_" opacity="0.28">
		
			<image overflow="visible" width="2081" height="226" xlink:href="BF3C9F05EE6F2389.png"  transform="matrix(0.24 0 0 0.24 250.2764 844.2793)">
		</image>
	</g>
</g>
<g id="Object">
	<g id="XMLID_291_">
		<g id="XMLID_295_">
			<polygon id="XMLID_336_" fill="#F7F7F7" points="477.609,781.938 675.38,781.938 692.449,875.472 459.675,875.472 			"/>
			<g id="XMLID_326_">
				<polygon fill="#A9A8A8" points="678.794,800.646 675.38,781.938 477.609,781.938 473.988,800.822 				"/>
				<polygon fill="#AAA9A9" points="678.824,800.812 675.405,782.073 477.582,782.082 473.954,801.007 				"/>
				<polygon fill="#ABAAAA" points="678.854,800.979 675.43,782.207 477.554,782.225 473.92,801.191 				"/>
				<polygon fill="#ACABAB" points="678.885,801.146 675.454,782.343 477.526,782.368 473.887,801.376 				"/>
				<polygon fill="#ADACAC" points="678.915,801.312 675.479,782.479 477.499,782.513 473.854,801.561 				"/>
				<polygon fill="#AEADAD" points="678.945,801.479 675.503,782.614 477.472,782.656 473.82,801.745 				"/>
				<polygon fill="#AFAEAE" points="678.977,801.645 675.528,782.749 477.444,782.801 473.786,801.93 				"/>
				<polygon fill="#B0AFAF" points="679.006,801.811 675.553,782.885 477.416,782.944 473.752,802.114 				"/>
				<polygon fill="#B1B0B0" points="679.037,801.978 675.578,783.02 477.389,783.088 473.719,802.299 				"/>
				<polygon fill="#B2B1B1" points="679.067,802.144 675.603,783.155 477.361,783.231 473.685,802.483 				"/>
				<polygon fill="#B3B2B2" points="679.098,802.31 675.627,783.29 477.333,783.375 473.65,802.668 				"/>
				<polygon fill="#B4B3B3" points="679.128,802.477 675.651,783.426 477.306,783.519 473.617,802.853 				"/>
				<polygon fill="#B5B4B4" points="679.158,802.643 675.677,783.561 477.278,783.663 473.584,803.037 				"/>
				<polygon fill="#B6B5B5" points="679.188,802.809 675.701,783.696 477.251,783.807 473.55,803.222 				"/>
				<polygon fill="#B7B6B6" points="679.219,802.976 675.726,783.832 477.224,783.951 473.517,803.406 				"/>
				<polygon fill="#B8B7B7" points="679.249,803.141 675.75,783.967 477.195,784.095 473.482,803.591 				"/>
				<polygon fill="#B9B8B8" points="679.279,803.308 675.774,784.102 477.168,784.238 473.449,803.775 				"/>
				<polygon fill="#BAB9B9" points="679.311,803.475 675.8,784.237 477.141,784.382 473.416,803.96 				"/>
				<polygon fill="#BBBABA" points="679.34,803.64 675.824,784.372 477.112,784.525 473.382,804.144 				"/>
				<polygon fill="#BCBBBB" points="679.37,803.807 675.849,784.508 477.085,784.669 473.348,804.328 				"/>
				<polygon fill="#BDBCBC" points="679.4,803.974 675.873,784.644 477.058,784.813 473.314,804.514 				"/>
				<polygon fill="#BDBDBD" points="679.432,804.14 675.898,784.778 477.03,784.957 473.28,804.698 				"/>
				<polygon fill="#BEBEBE" points="679.462,804.306 675.923,784.914 477.003,785.101 473.247,804.883 				"/>
				<polygon fill="#BFBFBF" points="679.492,804.473 675.948,785.049 476.975,785.244 473.213,805.067 				"/>
				<polygon fill="#C0C0C0" points="679.522,804.639 675.973,785.184 476.947,785.389 473.18,805.252 				"/>
				<polygon fill="#C1C1C1" points="679.553,804.805 675.997,785.319 476.92,785.532 473.146,805.436 				"/>
				<polygon fill="#C2C2C2" points="679.584,804.972 676.021,785.455 476.893,785.676 473.112,805.621 				"/>
				<polygon fill="#C3C3C3" points="679.613,805.138 676.047,785.59 476.865,785.82 473.078,805.806 				"/>
				<polygon fill="#C4C4C4" points="679.645,805.304 676.071,785.726 476.837,785.964 473.045,805.99 				"/>
				<polygon fill="#C5C5C5" points="679.674,805.471 676.096,785.86 476.81,786.107 473.011,806.174 				"/>
				<polygon fill="#C6C6C6" points="679.705,805.637 676.121,785.996 476.782,786.251 472.978,806.359 				"/>
				<polygon fill="#C7C7C7" points="679.734,805.803 676.146,786.131 476.755,786.395 472.943,806.543 				"/>
				<polygon fill="#C8C8C8" points="679.766,805.97 676.17,786.267 476.727,786.539 472.91,806.729 				"/>
				<polygon fill="#C9C9C9" points="679.796,806.136 676.195,786.402 476.699,786.683 472.876,806.913 				"/>
				<polygon fill="#CACACA" points="679.826,806.302 676.22,786.537 476.672,786.826 472.843,807.098 				"/>
				<polygon fill="#CBCBCB" points="679.856,806.468 676.244,786.672 476.645,786.971 472.81,807.281 				"/>
				<polygon fill="#CCCCCC" points="679.887,806.635 676.269,786.808 476.616,787.113 472.775,807.467 				"/>
				<polygon fill="#CDCDCD" points="679.918,806.801 676.293,786.943 476.589,787.258 472.741,807.65 				"/>
				<polygon fill="#CECECE" points="679.947,806.967 676.318,787.078 476.562,787.401 472.708,807.835 				"/>
				<polygon fill="#CFCFCF" points="679.979,807.133 676.343,787.213 476.534,787.545 472.674,808.02 				"/>
				<polygon fill="#D0D0D0" points="680.008,807.3 676.367,787.349 476.506,787.689 472.641,808.205 				"/>
				<polygon fill="#D1D0D0" points="680.039,807.466 676.393,787.484 476.479,787.832 472.606,808.389 				"/>
				<polygon fill="#D2D1D1" points="680.068,807.633 676.417,787.619 476.451,787.977 472.573,808.574 				"/>
				<polygon fill="#D3D2D2" points="680.1,807.799 676.441,787.755 476.424,788.12 472.54,808.758 				"/>
				<polygon fill="#D4D3D3" points="680.13,807.965 676.467,787.89 476.396,788.264 472.506,808.943 				"/>
				<polygon fill="#D5D4D4" points="680.16,808.131 676.491,788.025 476.368,788.408 472.472,809.127 				"/>
				<polygon fill="#D6D5D5" points="680.19,808.298 676.516,788.16 476.341,788.552 472.438,809.312 				"/>
				<polygon fill="#D7D6D6" points="680.221,808.464 676.541,788.295 476.313,788.695 472.404,809.496 				"/>
				<polygon fill="#D8D7D7" points="680.251,808.631 676.565,788.431 476.286,788.839 472.371,809.682 				"/>
				<polygon fill="#D9D8D8" points="680.281,808.797 676.59,788.566 476.258,788.982 472.337,809.865 				"/>
				<polygon fill="#DAD9D9" points="680.312,808.963 676.614,788.701 476.23,789.127 472.304,810.05 				"/>
				<polygon fill="#DBDADA" points="680.342,809.129 676.639,788.837 476.203,789.271 472.27,810.234 				"/>
				<polygon fill="#DCDBDB" points="680.373,809.296 676.664,788.973 476.175,789.414 472.236,810.419 				"/>
				<polygon fill="#DDDCDC" points="680.402,809.462 676.688,789.107 476.148,789.559 472.203,810.604 				"/>
				<polygon fill="#DEDDDD" points="680.434,809.629 676.713,789.242 476.12,789.702 472.169,810.789 				"/>
				<polygon fill="#DFDEDE" points="680.464,809.795 676.738,789.378 476.093,789.846 472.135,810.973 				"/>
				<polygon fill="#E0DFDF" points="680.494,809.961 676.763,789.513 476.065,789.989 472.102,811.157 				"/>
				<polygon fill="#E1E0E0" points="680.524,810.127 676.787,789.648 476.037,790.133 472.067,811.342 				"/>
				<polygon fill="#E2E1E1" points="680.555,810.294 676.812,789.783 476.01,790.277 472.034,811.526 				"/>
				<polygon fill="#E3E2E2" points="680.585,810.46 676.837,789.919 475.982,790.421 472,811.711 				"/>
				<polygon fill="#E4E3E3" points="680.615,810.627 676.861,790.055 475.954,790.564 471.967,811.896 				"/>
				<polygon fill="#E4E4E4" points="680.646,810.793 676.887,790.189 475.928,790.708 471.933,812.08 				"/>
				<polygon fill="#E5E5E5" points="680.676,810.959 676.911,790.324 475.899,790.852 471.899,812.265 				"/>
				<polygon fill="#E6E6E6" points="680.706,811.125 676.936,790.46 475.872,790.996 471.865,812.449 				"/>
				<polygon fill="#E7E7E7" points="680.736,811.292 676.96,790.596 475.845,791.14 471.832,812.634 				"/>
				<polygon fill="#E8E8E8" points="680.768,811.458 676.985,790.73 475.816,791.283 471.798,812.818 				"/>
				<polygon fill="#E9E9E9" points="680.798,811.624 677.01,790.866 475.789,791.428 471.765,813.003 				"/>
				<polygon fill="#EAEAEA" points="680.828,811.791 677.034,791.001 475.762,791.571 471.73,813.188 				"/>
				<polygon fill="#EBEBEB" points="680.858,811.957 677.06,791.137 475.733,791.715 471.697,813.372 				"/>
				<polygon fill="#ECECEC" points="680.889,812.123 677.084,791.271 475.707,791.858 471.663,813.557 				"/>
				<polygon fill="#EDEDED" points="680.919,812.29 677.108,791.407 475.679,792.002 471.63,813.741 				"/>
				<polygon fill="#EEEEEE" points="680.949,812.456 677.133,791.542 475.651,792.146 471.596,813.926 				"/>
				<polygon fill="#EFEFEF" points="680.979,812.622 677.158,791.678 475.624,792.29 471.562,814.11 				"/>
				<polygon fill="#F0F0F0" points="681.01,812.789 677.183,791.812 475.596,792.434 471.528,814.295 				"/>
				<polygon fill="#F1F1F1" points="681.04,812.955 677.207,791.948 475.568,792.578 471.495,814.479 				"/>
				<polygon fill="#F2F2F2" points="681.071,813.121 677.232,792.084 475.541,792.722 471.461,814.664 				"/>
				<polygon fill="#F3F3F3" points="681.102,813.288 677.257,792.219 475.513,792.865 471.428,814.849 				"/>
				<polygon fill="#F4F4F4" points="681.132,813.454 677.281,792.354 475.486,793.009 471.394,815.033 				"/>
				<polygon fill="#F5F5F5" points="681.162,813.62 677.307,792.489 475.458,793.152 471.36,815.218 				"/>
				<polygon fill="#F6F6F6" points="681.191,813.787 677.331,792.625 475.431,793.297 471.326,815.402 				"/>
				<polygon fill="#F7F7F7" points="681.223,813.953 677.355,792.76 475.403,793.44 471.293,815.587 				"/>
			</g>
			<g id="XMLID_318_">
				<polygon fill="#C4C4C4" points="462.27,861.937 459.675,875.472 692.449,875.472 688.069,861.085 				"/>
				<polygon fill="#C5C5C5" points="462.301,861.771 459.693,875.377 692.429,875.36 688.078,860.948 				"/>
				<polygon fill="#C6C6C6" points="462.333,861.606 459.711,875.281 692.409,875.249 688.087,860.812 				"/>
				<polygon fill="#C7C7C7" points="462.364,861.44 459.729,875.187 692.389,875.138 688.096,860.675 				"/>
				<polygon fill="#C8C8C8" points="462.396,861.275 459.748,875.092 692.368,875.027 688.104,860.538 				"/>
				<polygon fill="#C9C9C9" points="462.428,861.11 459.766,874.997 692.349,874.917 688.113,860.401 				"/>
				<polygon fill="#CACACA" points="462.46,860.944 459.784,874.902 692.328,874.806 688.122,860.265 				"/>
				<polygon fill="#CBCBCB" points="462.491,860.779 459.802,874.807 692.307,874.694 688.131,860.128 				"/>
				<polygon fill="#CCCCCC" points="462.522,860.613 459.82,874.712 692.287,874.583 688.14,859.991 				"/>
				<polygon fill="#CDCDCD" points="462.555,860.393 459.839,874.562 692.267,874.418 688.148,859.799 				"/>
				<polygon fill="#CECECE" points="462.586,860.222 459.856,874.461 692.246,874.3 688.157,859.656 				"/>
				<polygon fill="#CFCFCF" points="462.618,860.051 459.875,874.359 692.227,874.183 688.166,859.514 				"/>
				<polygon fill="#D0D0D0" points="462.65,859.88 459.894,874.259 692.206,874.065 688.175,859.371 				"/>
				<polygon fill="#D1D1D1" points="462.682,859.707 459.911,874.158 692.186,873.947 688.184,859.229 				"/>
				<polygon fill="#D2D2D2" points="462.713,859.536 459.93,874.057 692.165,873.83 688.192,859.085 				"/>
				<polygon fill="#D3D3D3" points="462.745,859.364 459.947,873.955 692.146,873.714 688.201,858.942 				"/>
				<polygon fill="#D4D4D4" points="462.776,859.193 459.966,873.854 692.125,873.597 688.21,858.8 				"/>
				<polygon fill="#D5D5D5" points="462.809,859.021 459.984,873.754 692.104,873.479 688.219,858.656 				"/>
				<polygon fill="#D6D6D6" points="462.84,858.851 460.003,873.652 692.085,873.363 688.228,858.515 				"/>
				<polygon fill="#D7D7D7" points="462.872,858.679 460.021,873.551 692.064,873.245 688.236,858.371 				"/>
				<polygon fill="#D8D8D8" points="462.903,858.508 460.039,873.45 692.044,873.128 688.245,858.229 				"/>
				<polygon fill="#D9D9D9" points="462.936,858.336 460.057,873.349 692.023,873.01 688.254,858.085 				"/>
				<polygon fill="#DADADA" points="462.967,858.164 460.075,873.248 692.004,872.893 688.263,857.942 				"/>
				<polygon fill="#DBDBDB" points="462.998,857.993 460.094,873.146 691.983,872.776 688.271,857.8 				"/>
				<polygon fill="#DCDCDC" points="463.03,857.822 460.111,873.046 691.963,872.659 688.28,857.657 				"/>
				<polygon fill="#DDDDDD" points="463.062,857.649 460.13,872.944 691.942,872.541 688.289,857.514 				"/>
				<polygon fill="#DDDDDD" points="463.095,857.479 460.148,872.844 691.923,872.426 688.299,857.371 				"/>
				<polygon fill="#DEDEDE" points="463.125,857.308 460.166,872.742 691.902,872.308 688.307,857.229 				"/>
				<polygon fill="#DFDFDF" points="463.157,857.136 460.185,872.642 691.882,872.19 688.315,857.086 				"/>
				<polygon fill="#E0E0E0" points="463.189,856.964 460.203,872.54 691.862,872.072 688.325,856.942 				"/>
				<polygon fill="#E1E1E1" points="463.221,856.797 460.221,872.443 691.842,871.959 688.333,856.803 				"/>
				<polygon fill="#E2E2E2" points="463.253,856.64 460.239,872.356 691.822,871.857 688.343,856.676 				"/>
				<polygon fill="#E3E3E3" points="463.285,856.482 460.258,872.27 691.802,871.754 688.352,856.547 				"/>
				<polygon fill="#E4E4E4" points="463.315,856.325 460.275,872.183 691.78,871.65 688.359,856.418 				"/>
				<polygon fill="#E5E5E5" points="463.348,856.167 460.294,872.096 691.76,871.548 688.368,856.289 				"/>
				<polygon fill="#E6E6E6" points="463.379,856.011 460.312,872.009 691.74,871.445 688.377,856.161 				"/>
				<polygon fill="#E7E7E7" points="463.411,855.854 460.33,871.922 691.72,871.342 688.386,856.032 				"/>
				<polygon fill="#E8E8E8" points="463.442,855.696 460.349,871.835 691.699,871.238 688.395,855.903 				"/>
				<polygon fill="#E9E9E9" points="463.475,855.539 460.367,871.748 691.68,871.136 688.404,855.775 				"/>
				<polygon fill="#EAEAEA" points="463.507,855.383 460.386,871.662 691.659,871.033 688.413,855.646 				"/>
				<polygon fill="#EBEBEB" points="463.538,855.226 460.403,871.575 691.64,870.931 688.422,855.519 				"/>
				<polygon fill="#ECECEC" points="463.57,855.067 460.422,871.488 691.619,870.827 688.431,855.39 				"/>
				<polygon fill="#EDEDED" points="463.602,854.911 460.44,871.401 691.599,870.725 688.439,855.262 				"/>
				<polygon fill="#EEEEEE" points="463.633,854.754 460.458,871.314 691.579,870.622 688.448,855.133 				"/>
				<polygon fill="#EFEFEF" points="463.665,854.597 460.477,871.228 691.559,870.519 688.457,855.004 				"/>
				<polygon fill="#F0F0F0" points="463.696,854.439 460.494,871.142 691.538,870.416 688.466,854.876 				"/>
				<polygon fill="#F1F1F1" points="463.728,854.331 460.512,871.103 691.518,870.361 688.474,854.796 				"/>
				<polygon fill="#F2F2F2" points="463.76,854.166 460.53,871.008 691.497,870.251 688.482,854.659 				"/>
				<polygon fill="#F3F3F3" points="463.791,854 460.548,870.913 691.477,870.14 688.491,854.522 				"/>
				<polygon fill="#F4F4F4" points="463.822,853.835 460.566,870.818 691.456,870.028 688.5,854.386 				"/>
				<polygon fill="#F5F5F5" points="463.854,853.669 460.585,870.723 691.437,869.917 688.509,854.249 				"/>
				<polygon fill="#F6F6F6" points="463.886,853.504 460.603,870.628 691.416,869.806 688.518,854.112 				"/>
				<polygon fill="#F7F7F7" points="463.918,853.339 460.621,870.533 691.396,869.695 688.526,853.976 				"/>
			</g>
			<path id="XMLID_317_" fill="#F6F4F4" d="M720.707,880.518l-28.258-5.046H459.675l-28.258,5.046
				c-0.87,0.155-1.503,0.912-1.503,1.795v5.644c0,0.736,0.597,1.333,1.332,1.333h289.632c0.735,0,1.332-0.597,1.332-1.333v-5.644
				C722.21,881.43,721.577,880.673,720.707,880.518z"/>
			<g id="XMLID_309_">
				<polygon fill="#BDBCBC" points="713.477,879.227 692.449,875.472 459.675,875.472 438.646,879.227 				"/>
				<path fill="#BEBDBD" d="M459.188,875.559c-0.016,0.003-5.317,0.961-5.317,0.977l-11.02,2.064c0,0.013-4.345,0.801-4.332,0.801
					h275.085c0.013,0-4.168-0.76-4.168-0.772l-11.071-2.072c0-0.016-5.413-0.994-5.428-0.997l-1.289-0.008
					C691.647,875.551,459.231,875.551,459.188,875.559z"/>
				<path fill="#BFBEBE" d="M458.7,875.646c-0.03,0.005-5.25,0.96-5.25,0.99l-10.826,2.127c0,0.025-4.259,0.81-4.233,0.81h275.341
					c0.025,0-4.071-0.756-4.071-0.781l-10.877-2.136c0-0.03-5.33-1.005-5.359-1.01l-1.312-0.017
					C692.112,875.63,458.789,875.63,458.7,875.646z"/>
				<path fill="#C0BFBF" d="M458.213,875.732c-0.045,0.009-5.183,0.96-5.183,1.005l-10.633,2.19c0,0.038-4.172,0.819-4.134,0.819
					h275.596c0.038,0-3.975-0.753-3.975-0.791l-10.684-2.199c0-0.045-5.245-1.016-5.29-1.024l-1.335-0.023
					C692.576,875.709,458.348,875.709,458.213,875.732z"/>
				<path fill="#C1C0C0" d="M457.726,875.819c-0.06,0.011-5.116,0.959-5.116,1.02l-10.439,2.253c0,0.051-4.085,0.828-4.034,0.828
					h275.851c0.051,0-3.878-0.75-3.878-0.801l-10.488-2.261c0-0.062-5.162-1.028-5.223-1.039l-1.356-0.032
					C693.041,875.787,457.904,875.787,457.726,875.819z"/>
				<path fill="#C2C1C1" d="M457.238,875.907c-0.074,0.013-5.049,0.957-5.049,1.033l-10.246,2.315c0,0.063-3.999,0.838-3.936,0.838
					h276.106c0.063,0-3.782-0.747-3.782-0.811l-10.294-2.324c0-0.076-5.078-1.039-5.152-1.052l-1.381-0.04
					C693.505,875.867,457.462,875.867,457.238,875.907z"/>
				<path fill="#C3C2C2" d="M456.752,875.994c-0.091,0.016-4.982,0.956-4.982,1.048l-10.054,2.379c0,0.076-3.911,0.847-3.835,0.847
					h276.361c0.076,0-3.686-0.744-3.686-0.82l-10.1-2.387c0-0.092-4.994-1.051-5.084-1.066l-1.403-0.048
					C693.97,875.946,457.02,875.946,456.752,875.994z"/>
				<path fill="#C4C3C3" d="M456.264,876.08c-0.104,0.02-4.915,0.956-4.915,1.062l-9.859,2.442c0,0.089-3.825,0.856-3.736,0.856
					H714.37c0.089,0-3.59-0.742-3.59-0.831l-9.905-2.449c0-0.106-4.91-1.062-5.016-1.081l-1.426-0.056
					C694.434,876.024,456.577,876.024,456.264,876.08z"/>
				<path fill="#C5C4C4" d="M455.777,876.168c-0.12,0.021-4.849,0.955-4.849,1.077l-9.667,2.504c0,0.102-3.737,0.866-3.636,0.866
					h276.871c0.102,0-3.492-0.739-3.492-0.841l-9.712-2.512c0-0.122-4.826-1.073-4.946-1.095l-1.448-0.064
					C694.898,876.104,456.135,876.104,455.777,876.168z"/>
				<path fill="#C6C5C5" d="M455.289,876.255c-0.135,0.023-4.781,0.954-4.781,1.091l-9.473,2.567c0,0.114-3.651,0.874-3.537,0.874
					h277.127c0.114,0-3.396-0.735-3.396-0.85l-9.518-2.574c0-0.138-4.742-1.085-4.877-1.108l-1.472-0.072
					C695.362,876.183,455.691,876.183,455.289,876.255z"/>
				<path fill="#C7C6C6" d="M454.802,876.342c-0.149,0.026-4.714,0.953-4.714,1.105l-9.279,2.63c0,0.127-3.565,0.884-3.438,0.884
					h277.383c0.126,0-3.3-0.732-3.3-0.859l-9.323-2.638c0-0.152-4.658-1.096-4.809-1.122l-1.495-0.08
					C695.826,876.262,455.249,876.262,454.802,876.342z"/>
				<path fill="#C8C7C7" d="M454.315,876.429c-0.165,0.029-4.647,0.952-4.647,1.12l-9.087,2.692c0,0.14-3.478,0.894-3.339,0.894
					H714.88c0.14,0-3.202-0.73-3.202-0.87l-9.13-2.7c0-0.167-4.574-1.106-4.739-1.136l-1.518-0.088
					C696.291,876.341,454.808,876.341,454.315,876.429z"/>
				<path fill="#C9C8C8" d="M453.828,876.516c-0.18,0.032-4.581,0.952-4.581,1.135l-8.893,2.755c0,0.152-3.392,0.903-3.239,0.903
					h277.893c0.152,0-3.106-0.728-3.106-0.88l-8.935-2.763c0-0.183-4.491-1.118-4.671-1.15l-1.54-0.096
					C696.756,876.42,454.365,876.42,453.828,876.516z"/>
				<path fill="#CAC9C9" d="M453.341,876.603c-0.194,0.035-4.514,0.951-4.514,1.149l-8.7,2.818c0,0.164-3.304,0.912-3.139,0.912
					h278.147c0.165,0-3.01-0.725-3.01-0.891l-8.741-2.824c0-0.198-4.406-1.13-4.602-1.165l-1.563-0.104
					C697.22,876.499,453.923,876.499,453.341,876.603z"/>
				<path fill="#CBCACA" d="M452.854,876.689c-0.21,0.038-4.447,0.95-4.447,1.163l-8.506,2.881c0,0.178-3.218,0.922-3.041,0.922
					h278.403c0.178,0-2.914-0.722-2.914-0.899l-8.546-2.888c0-0.213-4.322-1.141-4.533-1.179l-1.586-0.111
					C697.684,876.578,453.479,876.578,452.854,876.689z"/>
				<path fill="#CCCACA" d="M452.366,876.777c-0.225,0.039-4.38,0.948-4.38,1.177l-8.312,2.943c0,0.19-3.132,0.932-2.941,0.932
					h278.658c0.19,0-2.817-0.72-2.817-0.91l-8.353-2.95c0-0.229-4.238-1.152-4.463-1.191l-1.609-0.12
					C698.148,876.657,453.037,876.657,452.366,876.777z"/>
				<path fill="#CDCBCB" d="M451.879,876.863c-0.24,0.043-4.312,0.948-4.312,1.192l-8.12,3.006c0,0.203-3.044,0.94-2.842,0.94
					h278.913c0.203,0-2.721-0.716-2.721-0.919l-8.157-3.013c0-0.244-4.155-1.164-4.396-1.207l-1.632-0.128
					C698.612,876.735,452.595,876.735,451.879,876.863z"/>
				<path fill="#CECCCC" d="M451.392,876.95c-0.255,0.046-4.246,0.948-4.246,1.206l-7.926,3.07c0,0.215-2.958,0.949-2.742,0.949
					h279.168c0.216,0-2.624-0.713-2.624-0.93l-7.963-3.075c0-0.259-4.072-1.175-4.327-1.221l-1.655-0.136
					C699.076,876.814,452.152,876.814,451.392,876.95z"/>
				<path fill="#CFCDCD" d="M450.905,877.037c-0.27,0.049-4.18,0.947-4.18,1.221l-7.732,3.133c0,0.229-2.871,0.959-2.644,0.959
					h279.424c0.229,0-2.527-0.711-2.527-0.939l-7.77-3.138c0-0.274-3.987-1.187-4.258-1.235l-1.678-0.143
					C699.541,876.895,451.71,876.895,450.905,877.037z"/>
				<path fill="#D0CECE" d="M450.418,877.125c-0.285,0.051-4.112,0.945-4.112,1.234l-7.54,3.195c0,0.24-2.784,0.968-2.543,0.968
					h279.679c0.241,0-2.432-0.707-2.432-0.948l-7.575-3.201c0-0.289-3.903-1.197-4.188-1.248l-1.7-0.152
					C700.006,876.973,451.268,876.973,450.418,877.125z"/>
				<path fill="#D1CFCF" d="M449.931,877.211c-0.3,0.055-4.046,0.945-4.046,1.249l-7.346,3.259c0,0.254-2.698,0.978-2.445,0.978
					h279.935c0.254,0-2.335-0.705-2.335-0.959l-7.381-3.264c0-0.304-3.819-1.208-4.119-1.263l-1.724-0.159
					C700.47,877.052,450.825,877.052,449.931,877.211z"/>
				<path fill="#D2D0D0" d="M449.443,877.299c-0.315,0.057-3.979,0.943-3.979,1.264l-7.153,3.32c0,0.267-2.61,0.987-2.345,0.987
					h280.189c0.266,0-2.238-0.702-2.238-0.969l-7.187-3.326c0-0.319-3.735-1.22-4.051-1.276l-1.747-0.168
					C700.934,877.131,450.383,877.131,449.443,877.299z"/>
				<path fill="#D3D1D1" d="M448.956,877.386c-0.33,0.059-3.911,0.943-3.911,1.278l-6.96,3.383c0,0.279-2.524,0.996-2.245,0.996
					h280.444c0.279,0-2.142-0.698-2.142-0.978l-6.992-3.389c0-0.335-3.652-1.232-3.982-1.291l-1.77-0.176
					C701.398,877.21,449.94,877.21,448.956,877.386z"/>
				<path fill="#D4D2D2" d="M448.469,877.473c-0.345,0.062-3.845,0.942-3.845,1.292l-6.767,3.446c0,0.292-2.438,1.006-2.146,1.006
					h280.7c0.291,0-2.046-0.696-2.046-0.988l-6.798-3.451c0-0.35-3.568-1.243-3.914-1.305l-1.792-0.184
					C701.862,877.289,449.497,877.289,448.469,877.473z"/>
				<path fill="#D5D3D3" d="M447.981,877.56c-0.36,0.064-3.777,0.94-3.777,1.306l-6.573,3.51c0,0.305-2.352,1.016-2.047,1.016
					h280.955c0.304,0-1.949-0.693-1.949-0.998l-6.604-3.515c0-0.365-3.484-1.254-3.845-1.318l-1.815-0.191
					C702.326,877.368,449.055,877.368,447.981,877.56z"/>
				<path fill="#D6D4D4" d="M447.495,877.646c-0.375,0.067-3.712,0.94-3.712,1.321l-6.38,3.571c0,0.317-2.264,1.024-1.946,1.024
					h281.21c0.317,0-1.853-0.69-1.853-1.007l-6.41-3.577c0-0.381-3.399-1.266-3.775-1.333l-1.838-0.199
					C702.791,877.447,448.612,877.447,447.495,877.646z"/>
				<path fill="#D7D5D5" d="M447.008,877.734c-0.39,0.069-3.645,0.939-3.645,1.335l-6.186,3.634c0,0.33-2.179,1.035-1.849,1.035
					h281.466c0.329,0-1.756-0.688-1.756-1.019l-6.216-3.64c0-0.396-3.316-1.276-3.707-1.346l-1.86-0.208
					C703.256,877.526,448.171,877.526,447.008,877.734z"/>
				<path fill="#D8D6D6" d="M446.521,877.82c-0.405,0.072-3.577,0.939-3.577,1.35l-5.993,3.697c0,0.344-2.091,1.043-1.749,1.043
					h281.721c0.342,0-1.659-0.684-1.659-1.027l-6.021-3.701c0-0.411-3.232-1.289-3.638-1.361l-1.884-0.215
					C703.72,877.605,447.728,877.605,446.521,877.82z"/>
				<path fill="#D9D7D7" d="M446.033,877.907c-0.421,0.075-3.511,0.938-3.511,1.364l-5.8,3.76c0,0.355-2.004,1.053-1.648,1.053
					h281.975c0.355,0-1.562-0.682-1.562-1.037l-5.827-3.765c0-0.427-3.148-1.3-3.568-1.375l-1.907-0.224
					C704.184,877.684,447.285,877.684,446.033,877.907z"/>
				<path fill="#DAD8D8" d="M445.546,877.994c-0.436,0.078-3.443,0.938-3.443,1.379l-5.606,3.822c0,0.369-1.918,1.062-1.55,1.062
					h282.231c0.367,0-1.467-0.68-1.467-1.047l-5.633-3.828c0-0.441-3.064-1.311-3.5-1.389l-1.93-0.23
					C704.648,877.764,446.843,877.764,445.546,877.994z"/>
				<path fill="#DAD9D9" d="M445.059,878.082c-0.45,0.08-3.376,0.936-3.376,1.393l-5.413,3.885c0,0.381-1.831,1.072-1.451,1.072
					h282.486c0.381,0-1.37-0.677-1.37-1.058l-5.438-3.89c0-0.457-2.98-1.322-3.431-1.402l-1.952-0.24
					C705.113,877.842,446.4,877.842,445.059,878.082z"/>
				<path fill="#DBDADA" d="M444.571,878.168c-0.465,0.084-3.31,0.936-3.31,1.408l-5.22,3.948c0,0.394-1.744,1.081-1.351,1.081
					h282.741c0.393,0-1.273-0.674-1.273-1.067l-5.245-3.953c0-0.472-2.896-1.333-3.361-1.417l-1.976-0.246
					C705.577,877.922,445.958,877.922,444.571,878.168z"/>
				<path fill="#DCDBDB" d="M444.084,878.256c-0.479,0.086-3.242,0.935-3.242,1.421l-5.026,4.012c0,0.406-1.658,1.09-1.252,1.09
					h282.997c0.405,0-1.178-0.671-1.178-1.077l-5.05-4.016c0-0.486-2.813-1.344-3.294-1.43L706.041,878
					C706.041,878,445.516,878,444.084,878.256z"/>
				<path fill="#DDDCDC" d="M443.597,878.343c-0.495,0.088-3.176,0.934-3.176,1.436l-4.833,4.074c0,0.419-1.57,1.099-1.152,1.099
					h283.252c0.418,0-1.08-0.667-1.08-1.086l-4.856-4.078c0-0.502-2.729-1.356-3.224-1.444l-2.021-0.264
					C706.506,878.079,445.072,878.079,443.597,878.343z"/>
				<path fill="#DEDDDD" d="M443.109,878.43c-0.51,0.091-3.108,0.933-3.108,1.45l-4.64,4.137c0,0.432-1.484,1.108-1.053,1.108
					h283.507c0.431,0-0.983-0.665-0.983-1.097l-4.662-4.14c0-0.518-2.646-1.368-3.156-1.459l-2.044-0.271
					C706.97,878.158,444.63,878.158,443.109,878.43z"/>
				<path fill="#DFDEDE" d="M442.622,878.517c-0.524,0.094-3.041,0.932-3.041,1.464l-4.447,4.2c0,0.444-1.397,1.118-0.953,1.118
					h283.762c0.444,0-0.887-0.662-0.887-1.106l-4.468-4.203c0-0.532-2.562-1.379-3.087-1.473l-2.066-0.279
					C707.435,878.237,444.188,878.237,442.622,878.517z"/>
				<path fill="#E0DFDF" d="M442.135,878.604c-0.54,0.096-2.975,0.932-2.975,1.479l-4.253,4.262c0,0.457-1.311,1.128-0.854,1.128
					H718.07c0.457,0-0.791-0.659-0.791-1.116l-4.272-4.266c0-0.548-2.479-1.392-3.019-1.487l-2.09-0.287
					C707.898,878.316,443.745,878.316,442.135,878.604z"/>
				<path fill="#E1E0E0" d="M441.647,878.69c-0.555,0.1-2.907,0.931-2.907,1.493l-4.06,4.325c0,0.47-1.225,1.137-0.755,1.137
					h284.272c0.469,0-0.694-0.656-0.694-1.126l-4.079-4.328c0-0.562-2.394-1.401-2.949-1.501l-2.113-0.295
					C708.362,878.396,443.303,878.396,441.647,878.69z"/>
				<path fill="#E2E1E1" d="M441.161,878.777c-0.57,0.102-2.841,0.93-2.841,1.508l-3.867,4.388c0,0.482-1.137,1.146-0.655,1.146
					h284.527c0.482,0-0.597-0.653-0.597-1.136l-3.885-4.392c0-0.578-2.311-1.413-2.881-1.515l-2.136-0.303
					C708.827,878.475,442.86,878.475,441.161,878.777z"/>
				<path fill="#E3E2E2" d="M440.674,878.865c-0.585,0.104-2.774,0.928-2.774,1.521l-3.673,4.45c0,0.495-1.051,1.155-0.557,1.155
					h284.783c0.494,0-0.501-0.65-0.501-1.146l-3.69-4.453c0-0.594-2.227-1.425-2.812-1.528l-2.159-0.312
					C709.291,878.553,442.418,878.553,440.674,878.865z"/>
				<path fill="#E4E3E3" d="M440.187,878.951c-0.6,0.107-2.707,0.928-2.707,1.537l-3.48,4.514c0,0.508-0.963,1.164-0.456,1.164
					h285.038c0.507,0-0.405-0.647-0.405-1.155l-3.496-4.517c0-0.608-2.143-1.436-2.742-1.543l-2.182-0.318
					C709.756,878.633,441.976,878.633,440.187,878.951z"/>
				<path fill="#E5E4E4" d="M439.699,879.039c-0.615,0.109-2.641,0.926-2.641,1.55l-3.286,4.577c0,0.521-0.877,1.174-0.357,1.174
					h285.294c0.52,0-0.309-0.645-0.309-1.166l-3.303-4.578c0-0.625-2.058-1.447-2.673-1.557l-2.205-0.327
					C710.22,878.712,441.533,878.712,439.699,879.039z"/>
				<path fill="#E6E5E5" d="M439.212,879.126c-0.63,0.112-2.573,0.925-2.573,1.565l-3.093,4.639c0,0.533-0.791,1.184-0.259,1.184
					h285.549c0.533,0-0.212-0.643-0.212-1.176l-3.107-4.642c0-0.64-1.975-1.458-2.604-1.57l-2.229-0.336
					C710.684,878.79,441.09,878.79,439.212,879.126z"/>
				<path fill="#E7E6E6" d="M438.725,879.213c-0.645,0.114-2.506,0.925-2.506,1.579l-2.9,4.702c0,0.546-0.703,1.192-0.158,1.192
					h285.804c0.545,0-0.115-0.64-0.115-1.185l-2.914-4.705c0-0.654-1.891-1.47-2.536-1.584l-2.25-0.344
					C711.148,878.869,440.647,878.869,438.725,879.213z"/>
				<path fill="#E8E6E6" d="M438.237,879.3c-0.66,0.118-2.439,0.924-2.439,1.594l-2.706,4.765c0,0.559-0.617,1.202-0.06,1.202
					h286.06c0.558,0-0.02-0.637-0.02-1.195l-2.719-4.767c0-0.67-1.808-1.48-2.468-1.599l-2.272-0.352
					C711.613,878.948,440.205,878.948,438.237,879.3z"/>
				<path fill="#E9E7E7" d="M437.75,879.387c-0.675,0.12-2.372,0.923-2.372,1.608l-2.514,4.827c0,0.571-0.53,1.211,0.04,1.211
					h286.314c0.57,0,0.078-0.633,0.078-1.205L716.771,881c0-0.686-1.723-1.493-2.398-1.613l-2.296-0.359
					C712.077,879.027,439.763,879.027,437.75,879.387z"/>
				<path fill="#EAE8E8" d="M437.264,879.474c-0.69,0.123-2.307,0.923-2.307,1.622l-2.319,4.891c0,0.584-0.444,1.221,0.14,1.221
					h286.569c0.583,0,0.174-0.631,0.174-1.215l-2.331-4.892c0-0.7-1.639-1.504-2.329-1.627l-2.318-0.367
					C712.542,879.106,439.32,879.106,437.264,879.474z"/>
				<path fill="#EBE9E9" d="M436.776,879.561c-0.705,0.126-2.239,0.922-2.239,1.637l-2.127,4.953c0,0.597-0.356,1.23,0.239,1.23
					h286.825c0.596,0,0.27-0.628,0.27-1.225l-2.136-4.955c0-0.715-1.556-1.515-2.261-1.641l-2.342-0.375
					C713.006,879.186,438.878,879.186,436.776,879.561z"/>
				<path fill="#ECEAEA" d="M436.289,879.647c-0.721,0.129-2.172,0.921-2.172,1.651l-1.934,5.016c0,0.609-0.271,1.239,0.339,1.239
					h287.079c0.608,0,0.367-0.625,0.367-1.234l-1.942-5.017c0-0.731-1.472-1.526-2.191-1.655l-2.364-0.383
					C713.471,879.265,438.436,879.265,436.289,879.647z"/>
				<path fill="#EDEBEB" d="M435.802,879.734c-0.735,0.131-2.105,0.92-2.105,1.666l-1.739,5.078c0,0.623-0.185,1.249,0.438,1.249
					h287.335c0.621,0,0.464-0.622,0.464-1.244l-1.749-5.08c0-0.745-1.387-1.538-2.122-1.669l-2.388-0.391
					C713.935,879.344,437.993,879.344,435.802,879.734z"/>
				<path fill="#EEECEC" d="M435.314,879.821c-0.75,0.135-2.038,0.919-2.038,1.681l-1.547,5.141c0,0.635-0.097,1.259,0.537,1.259
					h287.591c0.634,0,0.56-0.62,0.56-1.255l-1.554-5.143c0-0.761-1.304-1.548-2.054-1.683l-2.411-0.398
					C714.398,879.423,437.551,879.423,435.314,879.821z"/>
				<path fill="#EFEDED" d="M434.827,879.908c-0.765,0.137-1.972,0.919-1.972,1.695l-1.353,5.203c0,0.648-0.011,1.268,0.637,1.268
					h287.845c0.646,0,0.657-0.616,0.657-1.264l-1.359-5.205c0-0.776-1.221-1.561-1.985-1.697l-2.434-0.406
					C714.863,879.502,437.107,879.502,434.827,879.908z"/>
				<path fill="#F0EEEE" d="M434.34,879.995c-0.78,0.14-1.904,0.918-1.904,1.709l-1.16,5.267c0,0.66,0.077,1.277,0.736,1.277
					h288.101c0.659,0,0.753-0.614,0.753-1.274l-1.165-5.268c0-0.791-1.136-1.571-1.916-1.711l-2.456-0.415
					C715.328,879.58,436.665,879.58,434.34,879.995z"/>
				<path fill="#F1EFEF" d="M433.853,880.082c-0.795,0.143-1.837,0.917-1.837,1.724l-0.967,5.33c0,0.673,0.163,1.286,0.835,1.286
					H720.24c0.672,0,0.85-0.611,0.85-1.284l-0.972-5.33c0-0.807-1.052-1.583-1.847-1.726l-2.479-0.423
					C715.792,879.659,436.223,879.659,433.853,880.082z"/>
				<path fill="#F2F0F0" d="M433.366,880.17c-0.811,0.145-1.771,0.915-1.771,1.737l-0.773,5.393c0,0.686,0.25,1.295,0.935,1.295
					h288.611c0.685,0,0.946-0.607,0.946-1.293l-0.776-5.394c0-0.822-0.969-1.594-1.779-1.738l-2.502-0.431
					C716.256,879.739,435.78,879.739,433.366,880.17z"/>
				<path fill="#F3F1F1" d="M432.879,880.257c-0.825,0.147-1.704,0.915-1.704,1.752l-0.58,5.455c0,0.698,0.337,1.305,1.034,1.305
					h288.866c0.697,0,1.043-0.605,1.043-1.304l-0.583-5.455c0-0.837-0.885-1.605-1.71-1.753l-2.524-0.439
					C716.721,879.817,435.338,879.817,432.879,880.257z"/>
				<path fill="#F4F2F2" d="M432.392,880.344c-0.841,0.15-1.637,0.914-1.637,1.767l-0.387,5.517c0,0.711,0.423,1.314,1.133,1.314
					h289.122c0.71,0,1.139-0.603,1.139-1.313l-0.389-5.518c0-0.853-0.8-1.616-1.641-1.767l-2.548-0.447
					C717.185,879.896,434.896,879.896,432.392,880.344z"/>
				<path fill="#F5F3F3" d="M431.904,880.431c-0.855,0.152-1.57,0.912-1.57,1.78l-0.193,5.581c0,0.724,0.51,1.324,1.232,1.324
					H720.75c0.723,0,1.235-0.601,1.235-1.324l-0.194-5.58c0-0.868-0.716-1.629-1.571-1.781l-2.57-0.455
					C717.649,879.976,434.453,879.976,431.904,880.431z"/>
				<path fill="#F6F4F4" d="M720.707,880.518l-2.594-0.463H434.011l-2.594,0.463c-0.87,0.155-1.503,0.912-1.503,1.795v5.644
					c0,0.736,0.597,1.333,1.332,1.333h289.632c0.735,0,1.332-0.597,1.332-1.333v-5.644
					C722.21,881.43,721.577,880.673,720.707,880.518z"/>
			</g>
			<g id="XMLID_296_">
				<linearGradient id="SVGID_1_" gradientUnits="userSpaceOnUse" x1="560.999" y1="782.2129" x2="560.999" y2="259.8843">
					<stop  offset="0" style="stop-color:#EAEAEB"/>
					<stop  offset="0.5065" style="stop-color:#AAAAAE"/>
					<stop  offset="0.663" style="stop-color:#C6C6C9"/>
					<stop  offset="1" style="stop-color:#FFFFFF"/>
				</linearGradient>
				<path fill="url(#SVGID_1_)" d="M936.33,259.884H185.67c-12.363,0-22.386,10.865-22.386,24.268v425.575v37.325v10.894
					c0,13.403,10.022,24.268,22.386,24.268h750.66c12.363,0,22.385-10.864,22.385-24.268v-10.894v-37.325V284.151
					C958.715,270.749,948.692,259.884,936.33,259.884z"/>
				<path fill="#0F0F0F" d="M932.895,264.068H188.544c-12.255,0-22.189,10.69-22.189,23.878v418.756v36.728v10.72
					c0,13.188,9.935,23.879,22.189,23.879h744.351c12.255,0,22.189-10.691,22.189-23.879v-10.72v-36.728V287.947
					C955.084,274.759,945.148,264.068,932.895,264.068z"/>
				<g id="XMLID_306_">
					<g id="XMLID_307_">
						
							<circle id="XMLID_308_" fill="none" stroke="#262626" stroke-width="0.0745" stroke-miterlimit="10" cx="569.404" cy="276.101" r="7.206"/>
					</g>
				</g>
				<g id="XMLID_299_">
					<g id="XMLID_303_">
						<rect id="XMLID_304_" x="183.541" y="283.306" fill="#363637" width="753.73" height="478.97"/>
					</g>
				</g>
			</g>
		</g>
	</g>
	<rect x="207.077" y="298.616" fill="#FFFFFF" stroke="#272525" stroke-miterlimit="10" width="686.538" height="463.66"/>
	<rect x="207.077" y="298.616" fill="#494949" stroke="#272525" stroke-miterlimit="10" width="686.538" height="23.077"/>
	<rect x="207.077" y="321.692" fill="#494949" stroke="#272525" stroke-miterlimit="10" width="7.692" height="440.583"/>
	<rect x="885.923" y="321.693" fill="#494949" stroke="#272525" stroke-miterlimit="10" width="7.692" height="440.583"/>
	<rect x="787.334" y="309.487" fill="#FFFFFF" stroke="#FFFFFF" stroke-miterlimit="10" width="25.333" height="0.667"/>
	<rect x="857.257" y="309.82" fill="#FFFFFF" stroke="#FFFFFF" stroke-miterlimit="10" width="25.333" height="0.668"/>
	<rect x="823.617" y="309.487" fill="#FFFFFF" stroke="#FFFFFF" stroke-miterlimit="10" width="25.333" height="0.668"/>
	<path fill="#444444" stroke="#272525" stroke-miterlimit="10" d="M595.334,370c0,5.891-4.775,10.667-10.666,10.667H279.334
		c-5.892,0-10.667-4.775-10.667-10.667l0,0c0-5.891,4.775-10.667,10.667-10.667h305.334
		C590.559,359.333,595.334,364.109,595.334,370L595.334,370z"/>
	<path fill="#444444" stroke="#272525" stroke-miterlimit="10" d="M535.234,400.333c0,5.155-4.178,9.334-9.333,9.334h-247.9
		c-5.155,0-9.334-4.179-9.334-9.334l0,0c0-5.154,4.179-9.333,9.334-9.333h247.9C531.057,391,535.234,395.179,535.234,400.333
		L535.234,400.333z"/>
	<path fill="#444444" stroke="#272525" stroke-miterlimit="10" d="M676,453.333c0,2.209-2.675,4-5.975,4H274.644
		c-3.3,0-5.977-1.791-5.977-4l0,0c0-2.209,2.677-4,5.977-4h395.382C673.325,449.333,676,451.124,676,453.333L676,453.333z"/>
	<path fill="#444444" stroke="#272525" stroke-miterlimit="10" d="M647.334,471.395c0,2.209-2.487,4-5.554,4H274.222
		c-3.067,0-5.555-1.791-5.555-4l0,0c0-2.209,2.487-4,5.555-4H641.78C644.847,467.395,647.334,469.186,647.334,471.395
		L647.334,471.395z"/>
	<path fill="#444444" stroke="#272525" stroke-miterlimit="10" d="M702.667,491.062c0,2.209-2.851,4-6.365,4H275.033
		c-3.516,0-6.366-1.791-6.366-4l0,0c0-2.209,2.851-4,6.366-4h421.269C699.816,487.062,702.667,488.853,702.667,491.062
		L702.667,491.062z"/>
	<rect x="268.667" y="506.667" fill="#71858B" stroke="#272525" stroke-miterlimit="10" width="431.333" height="49.333"/>
	<rect x="376" y="515.333" fill="none" width="220.667" height="33.333"/>
	<text transform="matrix(1 0 0 1 460.335 541.1089)" fill="#FFFFFF" font-family="'Arial-BoldMT'" font-size="36">AD</text>
	<path fill="#444444" stroke="#272525" stroke-miterlimit="10" d="M701.334,574.729c0,2.209-2.851,4-6.365,4H273.7
		c-3.516,0-6.366-1.791-6.366-4l0,0c0-2.209,2.851-4,6.366-4h421.269C698.483,570.729,701.334,572.52,701.334,574.729
		L701.334,574.729z"/>
	<path fill="#444444" stroke="#272525" stroke-miterlimit="10" d="M713.477,611.668c0,2.209-2.928,4-6.539,4H274.169
		c-3.612,0-6.542-1.791-6.542-4l0,0c0-2.21,2.93-4,6.542-4h432.769C710.549,607.668,713.477,609.458,713.477,611.668
		L713.477,611.668z"/>
	<path fill="#444444" stroke="#272525" stroke-miterlimit="10" d="M674.96,593.333c0,2.209-2.675,4-5.975,4H273.604
		c-3.3,0-5.977-1.791-5.977-4l0,0c0-2.21,2.677-4,5.977-4h395.382C672.285,589.333,674.96,591.123,674.96,593.333L674.96,593.333z"
		/>
	<rect x="267.334" y="632" fill="#71858B" stroke="#272525" stroke-miterlimit="10" width="130.666" height="60"/>
	<rect x="571.334" y="632" fill="#71858B" stroke="#272525" stroke-miterlimit="10" width="130.666" height="60"/>
	<rect x="420.334" y="632" fill="#71858B" stroke="#272525" stroke-miterlimit="10" width="130.666" height="60"/>
	<path fill="#444444" stroke="#272525" stroke-miterlimit="10" d="M673.96,707.998c0,2.209-2.675,4-5.975,4H272.604
		c-3.3,0-5.977-1.791-5.977-4l0,0c0-2.21,2.677-4,5.977-4h395.382C671.285,703.998,673.96,705.788,673.96,707.998L673.96,707.998z"
		/>
	<path fill="#444444" stroke="#272525" stroke-miterlimit="10" d="M700.627,726.062c0,2.209-2.851,4-6.365,4H272.993
		c-3.516,0-6.366-1.791-6.366-4l0,0c0-2.209,2.851-4,6.366-4h421.269C697.776,722.062,700.627,723.853,700.627,726.062
		L700.627,726.062z"/>
	<rect x="226.666" y="645.334" fill="none" width="220.667" height="33.332"/>
	<text transform="matrix(1 0 0 1 311.001 671.1094)" fill="#FFFFFF" font-family="'Arial-BoldMT'" font-size="36">AD</text>
	<rect x="380.219" y="645.334" fill="none" width="220.667" height="33.332"/>
	<text transform="matrix(1 0 0 1 464.5537 671.1094)" fill="#FFFFFF" font-family="'Arial-BoldMT'" font-size="36">AD</text>
	<rect x="526.334" y="645.334" fill="none" width="220.667" height="33.332"/>
	<text transform="matrix(1 0 0 1 610.6699 671.1094)" fill="#FFFFFF" font-family="'Arial-BoldMT'" font-size="36">AD</text>
	<rect x="767.334" y="359.333" fill="#484949" width="32.667" height="2"/>
	<rect x="809.284" y="359.333" fill="#484949" width="32.667" height="2"/>
	<rect x="848.95" y="359.333" fill="#484949" width="32.667" height="2"/>
	<rect x="767.334" y="371.333" fill="#484949" width="32.667" height="2"/>
	<rect x="809.284" y="372.333" fill="#484949" width="32.667" height="2"/>
	<rect x="848.95" y="371.332" fill="#484949" width="32.667" height="2"/>
	
		<rect x="743.334" y="409.667" fill="none" stroke="#2D2D2D" stroke-width="3" stroke-miterlimit="10" width="130.666" height="320.395"/>
	<path fill="#444444" stroke="#272525" stroke-miterlimit="10" d="M840.684,426.5c0,0.829-0.534,1.5-1.193,1.5h-78.977
		c-0.659,0-1.194-0.671-1.194-1.5l0,0c0-0.828,0.535-1.5,1.194-1.5h78.977C840.149,425,840.684,425.672,840.684,426.5L840.684,426.5
		z"/>
	<path fill="#444444" stroke="#272525" stroke-miterlimit="10" d="M863.193,442.167c0,0.829-0.682,1.5-1.523,1.5H760.844
		c-0.842,0-1.525-0.671-1.525-1.5l0,0c0-0.828,0.684-1.5,1.525-1.5H861.67C862.512,440.667,863.193,441.339,863.193,442.167
		L863.193,442.167z"/>
	<path fill="#444444" stroke="#272525" stroke-miterlimit="10" d="M857.257,457.333c0,0.829-0.643,1.5-1.436,1.5h-95.064
		c-0.794,0-1.438-0.671-1.438-1.5l0,0c0-0.828,0.645-1.5,1.438-1.5h95.064C856.614,455.833,857.257,456.505,857.257,457.333
		L857.257,457.333z"/>
	<path fill="#444444" stroke="#272525" stroke-miterlimit="10" d="M818.667,475.395c0,0.829-0.39,1.5-0.87,1.5h-57.607
		c-0.48,0-0.871-0.671-0.871-1.5l0,0c0-0.828,0.391-1.5,0.871-1.5h57.607C818.277,473.895,818.667,474.566,818.667,475.395
		L818.667,475.395z"/>
	<path fill="#444444" stroke="#272525" stroke-miterlimit="10" d="M865.201,495.062c0,0.829-0.689,1.5-1.541,1.5H761.676
		c-0.852,0-1.543-0.671-1.543-1.5l0,0c0-0.828,0.691-1.5,1.543-1.5H863.66C864.512,493.562,865.201,494.233,865.201,495.062
		L865.201,495.062z"/>
	<path fill="#444444" stroke="#272525" stroke-miterlimit="10" d="M853.193,515.333c0,0.829-0.616,1.5-1.377,1.5h-91.12
		c-0.761,0-1.378-0.671-1.378-1.5l0,0c0-0.828,0.617-1.5,1.378-1.5h91.12C852.577,513.833,853.193,514.505,853.193,515.333
		L853.193,515.333z"/>
	<rect x="760.133" y="541.984" fill="#71858B" width="97.124" height="85.016"/>
	<rect x="698.951" y="567.826" fill="none" width="220.667" height="33.332"/>
	<text transform="matrix(1 0 0 1 783.2871 593.6016)" fill="#FFFFFF" font-family="'Arial-BoldMT'" font-size="36">AD</text>
	<path fill="#444444" stroke="#272525" stroke-miterlimit="10" d="M865.201,646.834c0,0.829-0.689,1.5-1.541,1.5H761.676
		c-0.852,0-1.543-0.671-1.543-1.5l0,0c0-0.828,0.691-1.5,1.543-1.5H863.66C864.512,645.334,865.201,646.006,865.201,646.834
		L865.201,646.834z"/>
	<path fill="#444444" stroke="#272525" stroke-miterlimit="10" d="M853.193,662c0,0.828-0.616,1.5-1.377,1.5h-91.12
		c-0.761,0-1.378-0.672-1.378-1.5l0,0c0-0.828,0.617-1.5,1.378-1.5h91.12C852.577,660.5,853.193,661.172,853.193,662L853.193,662z"
		/>
	<path fill="#444444" stroke="#272525" stroke-miterlimit="10" d="M857.257,678.666c0,0.828-0.643,1.5-1.436,1.5h-95.064
		c-0.794,0-1.438-0.672-1.438-1.5l0,0c0-0.828,0.645-1.5,1.438-1.5h95.064C856.614,677.166,857.257,677.838,857.257,678.666
		L857.257,678.666z"/>
	<path fill="#444444" stroke="#272525" stroke-miterlimit="10" d="M840.683,692c0,0.829-0.534,1.5-1.193,1.5h-78.977
		c-0.659,0-1.194-0.671-1.194-1.5l0,0c0-0.828,0.535-1.5,1.194-1.5h78.977C840.148,690.5,840.683,691.172,840.683,692L840.683,692z"
		/>
</g>
</svg>
